<?xml version="1.0" standalone="no"?>
<!DOCTYPE svg PUBLIC "-//W3C//DTD SVG 20010904//EN"
 "http://www.w3.org/TR/2001/REC-SVG-20010904/DTD/svg10.dtd">
<svg version="1.0" xmlns="http://www.w3.org/2000/svg"
 width="482.000000pt" height="95.000000pt" viewBox="0 0 482.000000 95.000000"
 preserveAspectRatio="xMidYMid meet">

<g transform="translate(0.000000,95.000000) scale(0.100000,-0.100000)"
fill="#000000" stroke="none">
<path d="M2860 585 l0 -345 50 0 50 0 2 221 3 222 199 -219 c109 -121 202
-221 207 -222 5 -2 9 145 9 342 l0 346 -50 0 -50 0 -2 -226 -3 -227 -203 227
c-112 124 -205 226 -208 226 -2 0 -4 -155 -4 -345z"/>
<path d="M3780 790 c0 -53 2 -61 18 -58 14 3 17 14 17 58 0 44 -3 55 -17 58
-16 3 -18 -5 -18 -58z"/>
<path d="M3570 747 c0 -23 67 -80 86 -73 15 6 12 12 -21 46 -39 40 -65 51 -65
27z"/>
<path d="M3962 727 c-34 -35 -41 -57 -19 -57 17 0 89 74 81 83 -14 14 -31 7
-62 -26z"/>
<path d="M165 665 c-96 -34 -151 -148 -127 -263 14 -68 53 -119 112 -149 74
-38 161 -25 223 34 l27 27 -1 -55 c0 -30 -5 -70 -12 -89 -22 -64 -114 -88
-213 -54 -25 8 -48 14 -49 12 -2 -2 -7 -22 -11 -45 -6 -41 -6 -41 32 -53 113
-33 234 -17 286 37 54 56 58 81 58 353 l0 250 -45 0 c-44 0 -45 -1 -45 -31 l0
-30 -32 24 c-64 47 -130 58 -203 32z m171 -90 c53 -34 71 -142 34 -202 -49
-81 -174 -82 -216 -2 -22 43 -22 125 0 167 31 59 121 78 182 37z"/>
<path d="M804 670 c-11 -4 -32 -22 -47 -39 -14 -17 -28 -31 -31 -31 -3 0 -6
16 -6 35 0 35 0 35 -45 35 l-45 0 0 -215 0 -215 45 0 45 0 0 113 c0 61 5 129
11 150 12 46 57 77 110 77 34 0 37 2 43 38 3 20 6 43 6 50 0 14 -53 15 -86 2z"/>
<path d="M1089 666 c-95 -34 -143 -106 -143 -216 1 -111 56 -185 157 -211 66
-16 168 -4 225 26 1 1 -4 18 -13 37 l-14 36 -43 -15 c-62 -21 -143 -13 -173
18 -13 13 -27 36 -30 52 l-7 27 157 0 158 0 -6 69 c-9 104 -38 150 -114 177
-48 17 -107 17 -154 0z m130 -81 c31 -15 41 -33 41 -71 0 -24 -1 -24 -105 -24
-96 0 -105 2 -105 19 0 24 37 70 64 81 32 13 74 11 105 -5z"/>
<path d="M1586 665 c-51 -18 -102 -69 -122 -121 -21 -56 -16 -155 12 -209 42
-81 155 -121 274 -96 80 17 86 22 70 61 -11 27 -17 31 -39 26 -115 -26 -180
-14 -212 38 -34 56 -33 56 136 56 l155 0 0 51 c0 72 -17 123 -54 157 -54 51
-140 66 -220 37z m154 -91 c10 -11 21 -34 25 -51 l7 -33 -111 0 c-82 0 -111 3
-111 13 0 22 40 77 63 87 33 15 107 5 127 -16z"/>
<path d="M2160 669 c-14 -5 -40 -24 -57 -42 l-33 -31 0 37 0 37 -50 0 -50 0 0
-215 0 -215 50 0 50 0 0 120 c0 134 10 173 55 209 35 26 67 35 101 27 42 -11
54 -57 54 -216 l0 -140 51 0 51 0 -4 163 c-4 177 -15 222 -61 252 -31 20 -123
29 -157 14z"/>
<path d="M2682 663 c-18 -10 -41 -31 -52 -48 l-20 -30 0 43 0 42 -50 0 -50 0
0 -215 0 -215 50 0 50 0 0 120 c0 138 12 180 59 204 16 9 46 16 66 16 28 0 35
4 35 19 0 10 3 33 6 50 6 30 5 31 -27 31 -19 0 -49 -8 -67 -17z"/>
<path d="M3760 669 c-75 -16 -120 -111 -84 -178 71 -129 254 -89 254 57 0 80
-83 139 -170 121z m75 -43 c85 -36 71 -153 -22 -172 -47 -9 -90 18 -104 66
-11 36 -10 44 8 68 18 25 57 52 76 52 4 0 23 -6 42 -14z"/>
<path d="M4164 653 c35 -97 173 -412 180 -410 5 2 35 52 67 112 32 61 63 110
69 110 6 0 37 -49 69 -110 32 -60 62 -110 67 -112 7 -2 139 300 180 410 5 15
0 17 -44 17 l-51 0 -20 -55 c-12 -30 -31 -81 -42 -112 -12 -32 -25 -62 -30
-67 -4 -5 -34 44 -66 108 -32 64 -60 116 -63 116 -3 0 -33 -55 -66 -121 l-60
-121 -46 123 -45 124 -53 3 c-47 3 -52 1 -46 -15z"/>
<path d="M3485 550 c-13 -21 11 -31 61 -28 36 2 49 7 49 18 0 19 -99 27 -110
10z"/>
<path d="M3995 550 c-12 -20 7 -30 61 -30 47 0 54 2 54 20 0 18 -7 20 -54 20
-30 0 -58 -4 -61 -10z"/>
<path d="M3602 377 c-34 -35 -41 -57 -19 -57 17 0 89 74 81 83 -14 14 -31 7
-62 -26z"/>
<path d="M3930 397 c0 -23 67 -80 86 -73 15 6 12 12 -21 46 -39 40 -65 51 -65
27z"/>
<path d="M3780 290 c0 -53 2 -61 18 -58 14 3 17 14 17 58 0 44 -3 55 -17 58
-16 3 -18 -5 -18 -58z"/>
</g>
</svg>
