<?xml version="1.0" standalone="no"?>
<!DOCTYPE svg PUBLIC "-//W3C//DTD SVG 20010904//EN"
 "http://www.w3.org/TR/2001/REC-SVG-20010904/DTD/svg10.dtd">
<svg version="1.0" xmlns="http://www.w3.org/2000/svg"
 width="494.000000pt" height="187.000000pt" viewBox="0 0 494.000000 187.000000"
 preserveAspectRatio="xMidYMid meet">

<g transform="translate(0.000000,187.000000) scale(0.100000,-0.100000)"
fill="#000000" stroke="none">
<path d="M2920 1491 l0 -361 56 0 55 0 -3 230 c-2 127 0 229 4 228 3 -2 97
-104 208 -228 110 -124 205 -226 211 -228 5 -2 9 134 9 357 l0 361 -55 0 -55
0 0 -236 0 -235 -207 233 c-114 128 -210 235 -215 236 -4 2 -8 -159 -8 -357z"/>
<path d="M3844 1747 c-3 -8 -4 -36 -2 -63 2 -36 7 -49 18 -49 20 0 22 116 3
122 -7 3 -16 -2 -19 -10z"/>
<path d="M3634 1659 c-3 -6 12 -30 35 -52 32 -33 43 -39 53 -29 9 9 4 21 -27
52 -42 43 -50 46 -61 29z"/>
<path d="M4041 1644 c-43 -36 -57 -62 -36 -70 20 -8 85 52 85 78 0 25 -13 23
-49 -8z"/>
<path d="M167 1576 c-60 -22 -97 -56 -122 -115 -21 -48 -19 -166 4 -216 61
-131 222 -165 324 -68 l27 27 0 -70 c0 -85 -21 -126 -76 -144 -44 -15 -130 -8
-171 14 l-30 15 -10 -46 -11 -45 37 -16 c24 -11 66 -16 126 -17 80 0 95 3 135
27 28 16 55 43 70 70 25 42 25 46 28 316 l3 272 -45 0 c-44 0 -46 -1 -46 -30
0 -36 -3 -37 -43 -6 -62 46 -130 57 -200 32z m143 -82 c66 -27 101 -106 80
-185 -21 -78 -89 -119 -163 -98 -126 34 -126 251 -1 289 40 12 39 12 84 -6z"/>
<path d="M812 1573 c-18 -10 -41 -31 -52 -48 l-20 -30 0 43 0 42 -50 0 -50 0
0 -225 0 -225 50 0 50 0 0 138 c0 151 6 169 60 197 16 8 45 15 65 15 30 0 35
3 35 24 0 13 3 38 6 55 6 30 5 31 -27 31 -19 0 -49 -8 -67 -17z"/>
<path d="M1118 1581 c-53 -17 -98 -53 -126 -99 -23 -41 -27 -58 -27 -127 0
-67 4 -87 25 -125 45 -79 127 -117 237 -107 34 4 77 13 97 21 35 15 36 15 22
48 -16 37 -12 37 -88 19 -57 -12 -74 -11 -131 11 -28 11 -57 53 -57 83 0 13
22 15 161 15 l162 0 -6 70 c-7 83 -36 141 -85 172 -37 23 -139 33 -184 19z
m104 -82 c39 -10 68 -48 68 -89 0 -19 -6 -20 -110 -20 -123 0 -129 4 -90 67
16 27 47 45 90 52 3 1 22 -4 42 -10z"/>
<path d="M1621 1575 c-89 -28 -144 -110 -145 -215 0 -80 15 -127 56 -169 51
-52 84 -65 173 -65 71 -1 165 18 165 32 0 3 -5 21 -12 39 -10 28 -16 33 -33
28 -109 -35 -183 -24 -222 34 -41 61 -40 61 137 61 l160 0 0 53 c0 74 -17 126
-54 163 -52 52 -137 67 -225 39z m111 -75 c43 -12 68 -42 68 -82 l0 -28 -110
0 c-73 0 -110 4 -110 11 0 46 55 100 110 108 3 1 22 -4 42 -9z"/>
<path d="M2193 1571 c-23 -11 -46 -29 -53 -40 -16 -32 -30 -25 -30 14 l0 35
-50 0 -50 0 0 -225 0 -225 49 0 49 0 4 133 c3 109 7 138 23 166 43 73 122 98
168 53 21 -21 22 -33 25 -187 l4 -165 50 0 50 0 -4 178 c-3 191 -11 224 -62
258 -40 25 -124 28 -173 5z"/>
<path d="M2742 1573 c-18 -10 -41 -31 -52 -48 l-20 -30 0 43 0 42 -50 0 -50 0
0 -225 0 -225 50 0 50 0 0 138 c0 151 6 169 60 197 16 8 45 15 65 15 30 0 35
3 35 24 0 13 3 38 6 55 6 30 5 31 -27 31 -19 0 -49 -8 -67 -17z"/>
<path d="M3825 1569 c-62 -19 -95 -65 -95 -131 0 -39 6 -54 31 -82 97 -111
272 -16 230 124 -20 68 -99 110 -166 89z m105 -65 c31 -31 34 -92 5 -124 -61
-68 -165 -29 -165 60 0 44 16 69 53 85 39 17 74 10 107 -21z"/>
<path d="M4252 1571 c67 -171 185 -440 191 -438 5 1 37 54 71 117 33 63 65
114 70 113 6 0 37 -53 70 -117 34 -63 66 -114 71 -112 6 1 28 47 51 102 23 54
64 154 92 222 l51 122 -54 0 -53 0 -16 -42 c-9 -24 -31 -83 -50 -133 l-34 -90
-60 128 c-33 70 -63 127 -67 127 -3 0 -33 -55 -66 -122 -33 -67 -61 -124 -63
-125 -2 -2 -25 55 -51 127 l-48 130 -54 0 c-30 0 -53 -4 -51 -9z"/>
<path d="M3553 1453 c-7 -2 -13 -11 -13 -19 0 -10 15 -14 58 -14 64 0 78 6 61
27 -11 13 -80 17 -106 6z"/>
<path d="M4062 1447 c-18 -21 -4 -27 60 -27 51 0 59 2 56 18 -4 23 -99 30
-116 9z"/>
<path d="M3662 1267 c-36 -37 -41 -57 -13 -57 19 0 81 62 81 80 0 21 -38 8
-68 -23z"/>
<path d="M3996 1292 c-3 -5 15 -28 39 -52 38 -37 45 -41 51 -26 5 12 -4 28
-27 52 -32 34 -53 42 -63 26z"/>
<path d="M3844 1227 c-3 -8 -4 -34 -2 -58 2 -33 8 -45 21 -47 16 -3 18 3 15
54 -3 56 -21 83 -34 51z"/>
</g>
</svg>
