<?xml version="1.0" standalone="no"?>
<!DOCTYPE svg PUBLIC "-//W3C//DTD SVG 20010904//EN"
 "http://www.w3.org/TR/2001/REC-SVG-20010904/DTD/svg10.dtd">
<svg version="1.0" xmlns="http://www.w3.org/2000/svg"
 width="472.000000pt" height="92.000000pt" viewBox="0 0 472.000000 92.000000"
 preserveAspectRatio="xMidYMid meet">

<g transform="translate(0.000000,92.000000) scale(0.100000,-0.100000)"
fill="#000000" stroke="none">
<path d="M2800 565 l0 -335 50 0 50 0 0 211 c0 135 4 208 10 204 5 -3 94 -97
197 -208 103 -111 191 -204 195 -205 4 -2 8 147 8 332 l0 336 -50 0 -50 0 -2
-220 -3 -220 -195 219 c-107 121 -198 220 -202 220 -5 1 -8 -150 -8 -334z"/>
<path d="M3696 823 c-3 -3 -6 -30 -6 -60 0 -40 4 -53 15 -53 11 0 15 13 15 54
0 51 -9 74 -24 59z"/>
<path d="M3480 732 c0 -4 18 -26 40 -47 29 -28 43 -36 51 -28 14 14 -46 83
-72 83 -10 0 -19 -4 -19 -8z"/>
<path d="M3860 704 c-39 -45 -27 -68 19 -35 33 24 54 55 44 65 -14 13 -32 4
-63 -30z"/>
<path d="M142 634 c-59 -29 -86 -67 -103 -142 -45 -194 151 -342 309 -232 l42
30 0 -50 c0 -27 -4 -60 -10 -74 -22 -60 -125 -84 -210 -50 -23 9 -43 15 -45
12 -2 -2 -7 -22 -11 -45 l-6 -42 43 -13 c24 -7 78 -13 119 -12 97 0 153 28
187 93 22 43 23 52 23 293 l0 249 -42 -3 c-39 -3 -43 -6 -48 -32 -5 -27 -6
-28 -20 -11 -23 27 -90 55 -136 55 -23 0 -61 -11 -92 -26z m199 -93 c25 -25
40 -49 41 -67 4 -86 -16 -135 -64 -160 -42 -22 -111 -14 -144 17 -49 46 -55
150 -12 205 25 31 51 43 102 43 32 1 45 -6 77 -38z"/>
<path d="M785 649 c-11 -6 -32 -25 -47 -42 l-28 -31 0 37 0 37 -50 0 -50 0 0
-210 0 -210 50 0 50 0 0 130 c0 128 0 130 28 161 21 24 39 32 74 36 49 6 58
17 58 76 0 24 -4 27 -32 27 -18 0 -42 -5 -53 -11z"/>
<path d="M1066 646 c-57 -21 -87 -47 -113 -96 -30 -56 -31 -156 -4 -216 44
-96 168 -137 299 -99 56 17 58 20 40 60 -9 20 -17 25 -32 20 -45 -15 -137 -17
-166 -5 -28 12 -60 54 -60 80 0 6 52 10 151 10 l152 0 -5 75 c-5 82 -29 130
-81 160 -39 23 -132 29 -181 11z m127 -77 c26 -12 47 -47 47 -79 0 -19 -8 -20
-105 -20 -93 0 -105 2 -105 18 2 69 92 114 163 81z"/>
<path d="M1568 651 c-59 -19 -97 -52 -124 -106 -22 -47 -26 -65 -22 -124 7
-132 80 -196 223 -196 47 0 94 6 113 14 29 12 33 17 27 40 -9 38 -17 42 -60
30 -22 -6 -64 -9 -94 -7 -45 4 -59 10 -83 37 -52 58 -46 61 122 61 l150 0 0
63 c0 77 -30 142 -78 170 -36 21 -133 31 -174 18z m115 -82 c26 -12 47 -47 47
-79 0 -19 -8 -20 -106 -20 l-106 0 6 28 c10 41 60 82 101 82 19 0 45 -5 58
-11z"/>
<path d="M2122 653 c-12 -2 -38 -19 -57 -37 l-35 -33 0 33 0 34 -50 0 -50 0 0
-210 0 -210 50 0 50 0 0 125 c0 142 10 173 63 205 42 26 89 26 113 -1 17 -18
19 -40 22 -175 l3 -154 51 0 50 0 -4 163 c-3 140 -6 167 -24 197 -32 57 -97
79 -182 63z"/>
<path d="M2634 650 c-11 -4 -32 -22 -47 -39 -14 -17 -28 -31 -31 -31 -3 0 -6
16 -6 35 0 35 0 35 -45 35 l-45 0 0 -210 0 -210 45 0 45 0 0 108 c0 59 5 124
11 145 12 46 57 77 112 77 34 0 37 2 37 28 0 15 3 37 6 50 6 20 3 22 -27 21
-19 0 -43 -4 -55 -9z"/>
<path d="M3651 643 c-102 -53 -100 -175 3 -227 69 -34 154 6 177 84 29 98 -88
191 -180 143z m110 -43 c32 -24 47 -76 30 -109 -14 -24 -61 -51 -91 -51 -32 0
-77 36 -84 66 -14 55 33 113 92 114 13 0 37 -9 53 -20z"/>
<path d="M4071 642 c35 -91 176 -412 181 -412 4 0 35 52 69 116 72 134 59 136
139 -17 29 -54 56 -99 60 -99 5 0 135 296 176 403 5 15 -1 17 -44 17 l-49 0
-33 -87 c-18 -49 -39 -104 -47 -123 l-15 -35 -59 118 c-33 64 -62 117 -65 117
-3 0 -30 -52 -60 -116 -30 -64 -58 -113 -61 -110 -4 4 -25 57 -48 119 l-41
112 -53 3 c-30 2 -51 -1 -50 -6z"/>
<path d="M3395 530 c-3 -5 0 -13 8 -16 23 -9 112 0 110 11 -4 14 -110 19 -118
5z"/>
<path d="M3892 528 c3 -8 27 -14 61 -16 46 -2 57 0 57 13 0 12 -13 15 -61 15
-44 0 -60 -3 -57 -12z"/>
<path d="M3510 365 c-26 -27 -31 -38 -22 -47 9 -9 21 -3 52 27 38 37 43 55 16
55 -6 0 -27 -16 -46 -35z"/>
<path d="M3836 392 c-3 -5 13 -26 34 -47 31 -30 43 -36 52 -27 9 9 4 20 -22
47 -33 35 -54 43 -64 27z"/>
<path d="M3696 343 c-3 -3 -6 -30 -6 -60 0 -40 4 -53 15 -53 11 0 15 13 15 54
0 51 -9 74 -24 59z"/>
</g>
</svg>
